<svg xmlns="http://www.w3.org/2000/svg" xmlns:xlink="http://www.w3.org/1999/xlink" width="500" zoomAndPan="magnify" viewBox="0 0 375 374.999991" height="500" preserveAspectRatio="xMidYMid meet" version="1.0"><defs><g/><clipPath id="6598a0540b"><path d="M 43.5 140 L 331.5 140 L 331.5 214 L 43.5 214 Z M 43.5 140 " clip-rule="nonzero"/></clipPath><clipPath id="afd2a6dc42"><path d="M 267 82.25 L 317 82.25 L 317 132 L 267 132 Z M 267 82.25 " clip-rule="nonzero"/></clipPath></defs><path fill="#ffffff" d="M 84.726562 168.953125 C 84.636719 170.960938 84.582031 172.984375 84.609375 175.007812 C 84.175781 175.832031 83.773438 176.671875 83.410156 177.511719 C 83.726562 174.621094 84.175781 171.757812 84.726562 168.953125 Z M 125.984375 105.5625 C 124.148438 107.613281 122.488281 109.898438 120.972656 112.386719 C 117.523438 114.121094 114.34375 116 111.457031 118.027344 C 115.890625 113.441406 120.757812 109.25 125.984375 105.5625 Z M 258.023438 118.011719 C 255.136719 115.988281 251.945312 114.09375 248.492188 112.371094 C 246.976562 109.855469 245.285156 107.558594 243.4375 105.488281 C 248.175781 108.828125 252.667969 112.589844 256.839844 116.769531 C 257.242188 117.15625 257.632812 117.59375 258.023438 118.011719 Z M 284.871094 174.996094 C 284.914062 172.941406 284.855469 170.917969 284.753906 168.894531 C 285.304688 171.699219 285.722656 174.519531 286.039062 177.382812 C 285.695312 176.585938 285.304688 175.777344 284.871094 174.996094 Z M 284.464844 210.304688 C 284.25 206.445312 283.167969 202.683594 281.261719 199.027344 C 283.167969 192.304688 284.335938 185.464844 284.726562 178.625 C 285.75 181.082031 286.371094 183.585938 286.648438 186.113281 C 286.660156 187.054688 286.703125 188.007812 286.703125 188.960938 C 286.703125 196.222656 285.9375 203.363281 284.464844 210.304688 Z M 254.542969 263.339844 C 254.789062 262.980469 255.003906 262.605469 255.222656 262.226562 C 256.03125 261.621094 256.8125 260.984375 257.605469 260.347656 C 257.34375 260.609375 257.097656 260.898438 256.839844 261.15625 C 256.089844 261.910156 255.308594 262.617188 254.542969 263.339844 Z M 111.816406 260.289062 C 112.613281 260.941406 113.40625 261.59375 114.214844 262.199219 C 114.429688 262.574219 114.664062 262.949219 114.90625 263.328125 C 114.140625 262.605469 113.375 261.894531 112.625 261.15625 C 112.351562 260.867188 112.089844 260.578125 111.816406 260.289062 Z M 94.847656 164.902344 C 94.933594 171.554688 95.773438 178.378906 97.417969 185.347656 C 97.550781 185.867188 97.679688 186.390625 97.808594 186.910156 C 96.882812 187.71875 96.003906 188.542969 95.167969 189.382812 C 92.625 191.925781 90.53125 194.558594 88.914062 197.234375 C 87.078125 190.367188 86.039062 183.394531 85.808594 176.414062 C 87.871094 172.363281 90.921875 168.503906 94.847656 164.902344 Z M 89.214844 153.21875 C 91.195312 149.402344 94.070312 145.789062 97.722656 142.433594 C 95.886719 148.910156 94.921875 155.691406 94.832031 162.675781 C 93.835938 163.542969 92.882812 164.425781 91.988281 165.308594 C 89.476562 167.835938 87.410156 170.410156 85.75 173.058594 C 85.765625 169.066406 86.054688 165.089844 86.601562 161.144531 C 87.367188 158.453125 88.25 155.808594 89.214844 153.21875 Z M 104.769531 125.6875 C 104.078125 126.890625 103.414062 128.117188 102.792969 129.363281 C 102.011719 130.042969 101.261719 130.707031 100.554688 131.414062 C 101.894531 129.449219 103.296875 127.523438 104.769531 125.6875 Z M 117.160156 119.949219 C 112.582031 122.277344 108.511719 124.820312 105 127.554688 C 106.113281 125.515625 107.339844 123.519531 108.65625 121.566406 C 111.917969 118.894531 115.703125 116.421875 119.90625 114.207031 C 118.90625 116.03125 117.984375 117.9375 117.160156 119.949219 Z M 139.011719 106.574219 C 138.144531 108.382812 137.363281 110.320312 136.671875 112.359375 C 133.753906 113.210938 130.921875 114.152344 128.179688 115.164062 C 124.828125 116.421875 121.695312 117.75 118.75 119.183594 C 119.660156 117.085938 120.667969 115.105469 121.78125 113.238281 C 126.964844 110.664062 132.757812 108.425781 139.011719 106.574219 Z M 131.082031 102.164062 C 132.570312 101.238281 134.070312 100.355469 135.601562 99.519531 C 139.023438 97.941406 142.738281 96.539062 146.664062 95.339844 C 143.949219 98.113281 141.625 101.398438 139.675781 105.199219 C 133.636719 106.949219 127.992188 109.046875 122.894531 111.445312 C 125.246094 107.859375 127.992188 104.753906 131.082031 102.164062 Z M 148.441406 93.632812 C 148.179688 93.691406 147.921875 93.761719 147.660156 93.851562 C 147.980469 93.71875 148.296875 93.605469 148.613281 93.488281 C 148.554688 93.53125 148.5 93.574219 148.441406 93.632812 Z M 165.902344 90.046875 C 160.671875 90.726562 155.632812 91.710938 150.851562 92.96875 C 150.882812 92.867188 150.894531 92.75 150.882812 92.648438 C 156.167969 90.785156 161.640625 89.339844 167.289062 88.371094 C 166.796875 88.875 166.335938 89.441406 165.902344 90.046875 Z M 218.628906 92.9375 C 213.847656 91.679688 208.808594 90.699219 203.566406 90.019531 C 203.144531 89.425781 202.699219 88.875 202.222656 88.371094 C 207.808594 89.339844 213.296875 90.742188 218.613281 92.605469 C 218.582031 92.722656 218.582031 92.824219 218.628906 92.9375 Z M 220.980469 93.574219 C 220.9375 93.53125 220.878906 93.488281 220.824219 93.429688 C 221.140625 93.558594 221.472656 93.675781 221.789062 93.804688 C 221.53125 93.734375 221.253906 93.648438 220.980469 93.574219 Z M 250.730469 119.152344 C 247.785156 117.738281 244.652344 116.390625 241.316406 115.148438 C 238.554688 114.136719 235.726562 113.195312 232.824219 112.34375 C 232.128906 110.304688 231.335938 108.382812 230.46875 106.546875 C 236.722656 108.410156 242.511719 110.636719 247.683594 113.226562 C 248.808594 115.089844 249.820312 117.070312 250.730469 119.152344 Z M 260.796875 121.523438 C 262.125 123.476562 263.351562 125.472656 264.464844 127.511719 C 260.957031 124.792969 256.898438 122.246094 252.320312 119.933594 C 251.496094 117.925781 250.570312 116 249.5625 114.179688 C 253.761719 116.40625 257.53125 118.851562 260.796875 121.523438 Z M 266.660156 129.316406 C 266.039062 128.046875 265.359375 126.800781 264.652344 125.558594 C 266.167969 127.480469 267.628906 129.433594 269 131.429688 C 268.25 130.722656 267.46875 129.996094 266.660156 129.316406 Z M 277.519531 165.308594 C 276.609375 164.410156 275.65625 163.542969 274.660156 162.660156 C 274.558594 155.605469 273.578125 148.765625 271.714844 142.230469 C 275.367188 145.613281 278.242188 149.257812 280.25 153.117188 C 281.246094 155.777344 282.125 158.484375 282.890625 161.230469 C 283.441406 165.148438 283.714844 169.082031 283.730469 173.042969 C 282.082031 170.398438 280.019531 167.824219 277.519531 165.308594 Z M 273.996094 189.382812 C 273.246094 188.617188 272.4375 187.878906 271.613281 187.15625 C 271.773438 186.546875 271.929688 185.941406 272.0625 185.347656 C 273.722656 178.378906 274.558594 171.554688 274.632812 164.917969 C 275.210938 165.4375 275.773438 165.972656 276.308594 166.523438 C 279.5 169.703125 281.953125 173.015625 283.6875 176.398438 C 283.457031 183.496094 282.371094 190.609375 280.464844 197.609375 C 278.820312 194.789062 276.652344 192.042969 273.996094 189.382812 Z M 276.261719 209.84375 C 274.703125 207.210938 272.667969 204.664062 270.199219 202.179688 C 269.359375 201.355469 268.492188 200.558594 267.585938 199.75 C 269.027344 195.976562 270.285156 192.1875 271.308594 188.382812 C 271.945312 188.976562 272.582031 189.570312 273.203125 190.175781 C 276.105469 193.082031 278.386719 196.089844 280.046875 199.15625 C 279.007812 202.757812 277.738281 206.328125 276.261719 209.84375 Z M 283.296875 213.804688 C 282.328125 216.40625 281.273438 218.894531 280.132812 221.292969 C 279.800781 217.808594 278.746094 214.398438 276.957031 211.070312 C 278.445312 207.628906 279.730469 204.160156 280.796875 200.632812 C 282.515625 204.261719 283.382812 207.992188 283.382812 211.792969 C 283.382812 212.460938 283.355469 213.140625 283.296875 213.804688 Z M 280.234375 223.652344 C 280.753906 222.636719 281.246094 221.597656 281.738281 220.542969 C 281.246094 222.03125 280.742188 223.492188 280.191406 224.964844 C 280.21875 224.519531 280.234375 224.097656 280.234375 223.652344 Z M 235.8125 271.597656 C 236.507812 269.949219 236.867188 268.273438 236.925781 266.535156 C 243.554688 263.082031 250.441406 258.640625 256.984375 253.046875 C 256.796875 255.894531 255.902344 258.714844 254.371094 261.445312 C 248.621094 265.683594 242.269531 269.039062 235.8125 271.597656 Z M 225.921875 282.382812 C 225.832031 282.414062 225.746094 282.457031 225.660156 282.472656 C 227.148438 281.515625 228.519531 280.535156 229.746094 279.476562 C 231.839844 278.855469 233.921875 278.105469 235.941406 277.28125 C 232.691406 279.160156 229.355469 280.867188 225.921875 282.382812 Z M 139.617188 279.433594 C 140.800781 280.476562 142.128906 281.457031 143.574219 282.382812 C 143.546875 282.382812 143.515625 282.371094 143.488281 282.355469 C 140.078125 280.851562 136.730469 279.144531 133.492188 277.25 C 135.488281 278.074219 137.539062 278.8125 139.617188 279.433594 Z M 112.496094 253.046875 C 119.039062 258.628906 125.925781 263.066406 132.554688 266.523438 C 132.597656 268.242188 132.960938 269.933594 133.636719 271.582031 C 127.199219 269.007812 120.84375 265.667969 115.09375 261.433594 C 113.566406 258.699219 112.667969 255.878906 112.496094 253.046875 Z M 89.230469 223.605469 C 89.230469 224.054688 89.257812 224.488281 89.273438 224.953125 C 88.710938 223.449219 88.191406 221.945312 87.699219 220.425781 C 88.191406 221.511719 88.695312 222.582031 89.230469 223.605469 Z M 101.894531 199.734375 C 100.984375 200.542969 100.105469 201.339844 99.28125 202.179688 C 96.796875 204.652344 94.789062 207.210938 93.230469 209.8125 C 91.699219 206.183594 90.398438 202.496094 89.332031 198.765625 C 91.425781 195.019531 94.402344 191.464844 98.125 188.136719 C 99.152344 192.015625 100.421875 195.890625 101.894531 199.734375 Z M 114.199219 177.496094 C 115.007812 181.558594 115.992188 185.652344 117.144531 189.730469 C 111.703125 192.460938 106.878906 195.554688 102.820312 198.953125 C 101.347656 195.078125 100.089844 191.191406 99.078125 187.316406 C 103.28125 183.714844 108.367188 180.433594 114.199219 177.496094 Z M 113.59375 131.644531 C 112.410156 137.113281 111.703125 143.011719 111.570312 149.328125 C 111.542969 150.125 111.558594 150.921875 111.558594 151.714844 C 105.652344 154.664062 100.410156 158.003906 96.003906 161.679688 C 96.191406 154.507812 97.304688 147.582031 99.355469 140.972656 C 103.355469 137.574219 108.148438 134.453125 113.59375 131.644531 Z M 113.925781 130.113281 C 108.625 132.804688 103.945312 135.765625 99.988281 138.949219 C 101.042969 135.898438 102.285156 132.917969 103.730469 130.011719 C 107.371094 126.890625 111.703125 124.027344 116.597656 121.453125 C 115.558594 124.183594 114.648438 127.078125 113.925781 130.113281 Z M 134.085938 122.277344 C 129.941406 123.492188 125.957031 124.863281 122.199219 126.367188 C 119.789062 127.351562 117.476562 128.378906 115.269531 129.449219 C 116.046875 126.367188 116.988281 123.417969 118.097656 120.671875 C 123.53125 117.9375 129.636719 115.566406 136.238281 113.601562 C 135.386719 116.304688 134.648438 119.195312 134.085938 122.277344 Z M 159.429688 108.640625 C 158.984375 111.359375 158.609375 114.207031 158.332031 117.144531 C 150.289062 118.257812 142.550781 119.847656 135.300781 121.914062 C 135.90625 118.804688 136.65625 115.914062 137.566406 113.210938 C 144.382812 111.246094 151.71875 109.710938 159.429688 108.640625 Z M 160.816406 101.933594 C 160.371094 103.695312 159.980469 105.546875 159.617188 107.5 C 152.09375 108.527344 144.832031 110.015625 138 111.953125 C 138.734375 109.898438 139.546875 107.960938 140.453125 106.140625 C 146.824219 104.332031 153.667969 102.914062 160.816406 101.933594 Z M 184.167969 99.199219 C 176.675781 99.214844 169.324219 99.691406 162.289062 100.585938 C 163.402344 96.757812 164.804688 93.53125 166.480469 91.117188 C 172.210938 90.363281 178.132812 89.976562 184.167969 89.945312 Z M 207.203125 100.585938 C 200.15625 99.691406 192.804688 99.214844 185.296875 99.199219 L 185.296875 89.945312 C 191.363281 89.960938 197.28125 90.351562 202.972656 91.074219 C 204.675781 93.503906 206.0625 96.726562 207.203125 100.585938 Z M 209.859375 107.484375 C 209.515625 105.546875 209.125 103.683594 208.664062 101.917969 C 215.824219 102.902344 222.65625 104.316406 229.023438 106.125 C 229.933594 107.949219 230.757812 109.898438 231.496094 111.953125 C 224.648438 110 217.398438 108.511719 209.859375 107.484375 Z M 234.179688 121.871094 C 226.988281 119.832031 219.261719 118.226562 211.160156 117.113281 C 210.871094 114.179688 210.511719 111.34375 210.050781 108.640625 C 217.773438 109.695312 225.113281 111.246094 231.929688 113.195312 C 232.824219 115.898438 233.574219 118.777344 234.179688 121.871094 Z M 254.210938 129.375 C 248.535156 126.628906 242.226562 124.230469 235.394531 122.234375 C 234.816406 119.152344 234.109375 116.289062 233.242188 113.585938 C 239.855469 115.566406 245.949219 117.925781 251.378906 120.644531 C 252.492188 123.390625 253.429688 126.3125 254.210938 129.375 Z M 255.554688 130.027344 C 254.816406 127.003906 253.921875 124.140625 252.882812 121.4375 C 257.777344 123.996094 262.097656 126.859375 265.734375 129.984375 C 267.164062 132.847656 268.421875 135.808594 269.460938 138.832031 C 265.476562 135.636719 260.796875 132.671875 255.554688 130.027344 Z M 257.9375 151.703125 C 257.9375 150.921875 257.9375 150.125 257.921875 149.328125 C 257.777344 142.9375 257.070312 136.953125 255.859375 131.429688 C 261.289062 134.21875 266.082031 137.359375 270.066406 140.769531 C 272.148438 147.449219 273.304688 154.433594 273.492188 161.664062 C 269.070312 158.003906 263.84375 154.664062 257.9375 151.703125 Z M 252.332031 189.730469 C 253.488281 185.695312 254.457031 181.660156 255.25 177.65625 C 261.101562 180.621094 266.167969 183.929688 270.34375 187.546875 C 269.347656 191.347656 268.117188 195.179688 266.675781 198.96875 C 262.601562 195.554688 257.777344 192.476562 252.332031 189.730469 Z M 261.765625 210.1875 C 257.980469 207.023438 253.503906 204.144531 248.449219 201.601562 C 249.777344 198.027344 250.960938 194.441406 252.015625 190.828125 C 257.445312 193.574219 262.226562 196.667969 266.242188 200.082031 C 264.914062 203.480469 263.425781 206.847656 261.765625 210.1875 Z M 270.933594 220.671875 C 269.445312 218.128906 267.496094 215.640625 265.085938 213.210938 C 264.320312 212.445312 263.484375 211.691406 262.644531 210.957031 C 264.320312 207.628906 265.808594 204.261719 267.152344 200.878906 C 267.917969 201.570312 268.683594 202.265625 269.390625 202.972656 C 272.03125 205.632812 274.125 208.351562 275.699219 211.15625 C 274.285156 214.367188 272.710938 217.550781 270.933594 220.671875 Z M 212.144531 274.402344 C 212.054688 273.550781 211.824219 272.695312 211.449219 271.859375 C 219.652344 268.691406 227.320312 264.832031 234.382812 260.320312 C 235.277344 262.113281 235.742188 263.964844 235.785156 265.855469 C 226.917969 270.410156 218.539062 273.160156 212.144531 274.402344 Z M 211.722656 277.773438 C 211.984375 277.0625 212.128906 276.3125 212.171875 275.558594 C 218.539062 274.316406 226.875 271.625 235.753906 267.128906 C 235.625 268.835938 235.148438 270.527344 234.339844 272.160156 C 226.554688 275.097656 218.726562 276.933594 211.722656 277.773438 Z M 205.976562 284.191406 C 206.972656 283.570312 207.867188 282.890625 208.648438 282.183594 C 214.484375 282.570312 220.808594 281.863281 227.046875 280.246094 C 225.34375 281.488281 223.40625 282.660156 221.3125 283.714844 C 216.488281 284.886719 212.605469 284.914062 205.976562 284.191406 Z M 171.011719 287.417969 C 175.101562 288.601562 179.808594 289.28125 184.734375 289.28125 C 187.171875 289.28125 189.527344 289.121094 191.765625 288.832031 C 192.515625 289.570312 193.296875 290.179688 194.089844 290.625 C 191 290.902344 187.882812 291.058594 184.734375 291.058594 C 177.828125 291.058594 171.027344 290.367188 164.398438 289.035156 C 166.710938 288.832031 168.847656 288.296875 171.011719 287.417969 Z M 160.875 282.183594 C 161.65625 282.890625 162.550781 283.570312 163.546875 284.191406 C 156.875 284.914062 152.988281 284.886719 148.136719 283.699219 C 146.042969 282.644531 144.121094 281.488281 142.417969 280.230469 C 148.671875 281.863281 155.027344 282.570312 160.875 282.183594 Z M 157.308594 275.558594 C 157.351562 276.296875 157.496094 277.046875 157.757812 277.773438 C 150.75 276.917969 142.910156 275.097656 135.125 272.148438 C 134.316406 270.511719 133.839844 268.835938 133.726562 267.128906 C 142.59375 271.613281 150.925781 274.316406 157.308594 275.558594 Z M 135.082031 260.289062 C 142.160156 264.832031 149.828125 268.691406 158.03125 271.84375 C 157.640625 272.683594 157.410156 273.535156 157.324219 274.402344 C 150.925781 273.144531 142.5625 270.398438 133.683594 265.84375 C 133.726562 263.933594 134.214844 262.082031 135.082031 260.289062 Z M 97.910156 221.800781 C 96.25 224.921875 95.28125 228.132812 95.023438 231.429688 C 93.359375 228.855469 91.800781 226.195312 90.371094 223.363281 C 90.414062 219.601562 91.351562 215.945312 93.101562 212.429688 C 94.53125 215.609375 96.132812 218.734375 97.910156 221.800781 Z M 106.847656 210.941406 C 105.984375 211.691406 105.160156 212.445312 104.378906 213.210938 C 101.984375 215.625 100.03125 218.113281 98.546875 220.65625 C 96.785156 217.535156 95.195312 214.367188 93.792969 211.15625 C 95.816406 207.527344 98.703125 204.085938 102.328125 200.878906 C 103.671875 204.246094 105.175781 207.617188 106.847656 210.941406 Z M 121.046875 201.585938 C 115.976562 204.128906 111.5 207.007812 107.714844 210.175781 C 106.054688 206.847656 104.566406 203.464844 103.238281 200.082031 C 107.210938 196.726562 112.003906 193.632812 117.476562 190.871094 C 118.53125 194.457031 119.714844 198.042969 121.046875 201.585938 Z M 137.132812 183.28125 C 137.914062 186.9375 138.792969 190.640625 139.777344 194.355469 C 133.335938 196.222656 127.398438 198.476562 122.054688 201.078125 C 120.742188 197.523438 119.558594 193.953125 118.503906 190.367188 C 124.078125 187.648438 130.347656 185.261719 137.132812 183.28125 Z M 134.589844 169.601562 C 135.226562 173.707031 135.976562 177.886719 136.875 182.125 C 130.101562 184.089844 123.816406 186.460938 118.1875 189.222656 C 117.03125 185.132812 116.046875 181.039062 115.238281 176.976562 C 121.046875 174.140625 127.542969 171.65625 134.589844 169.601562 Z M 132.410156 145.46875 C 132.554688 152.699219 133.234375 160.40625 134.417969 168.429688 C 127.386719 170.46875 120.871094 172.925781 115.007812 175.789062 C 113.535156 168.039062 112.757812 160.40625 112.667969 153.074219 C 118.574219 150.152344 125.203125 147.609375 132.410156 145.46875 Z M 132.800781 131.804688 C 132.46875 135.578125 132.339844 139.554688 132.367188 143.675781 C 125.261719 145.757812 118.648438 148.273438 112.683594 151.152344 C 112.683594 150.558594 112.683594 149.953125 112.699219 149.359375 C 112.84375 142.78125 113.59375 136.621094 114.894531 130.980469 C 120.597656 128.160156 126.953125 125.675781 133.855469 123.59375 C 133.40625 126.210938 133.046875 128.929688 132.800781 131.804688 Z M 157.480469 138.414062 C 149.046875 139.554688 141.003906 141.21875 133.492188 143.34375 C 133.464844 139.425781 133.609375 135.59375 133.925781 131.890625 C 134.1875 128.871094 134.578125 125.976562 135.054688 123.261719 C 142.289062 121.132812 150.074219 119.472656 158.21875 118.328125 C 157.65625 124.808594 157.4375 131.691406 157.480469 138.414062 Z M 184.167969 116.476562 L 184.167969 136.621094 C 175.332031 136.648438 166.695312 137.226562 158.40625 138.296875 C 158.390625 131.125 158.652344 124.34375 159.214844 118.183594 C 167.242188 117.113281 175.605469 116.523438 184.167969 116.476562 Z M 184.167969 106.949219 L 184.167969 115.351562 C 175.75 115.378906 167.402344 115.945312 159.328125 117 C 159.632812 114.019531 160.007812 111.15625 160.484375 108.511719 C 168.066406 107.515625 176.011719 106.980469 184.167969 106.949219 Z M 184.167969 105.808594 C 176.140625 105.835938 168.285156 106.355469 160.6875 107.339844 C 161.0625 105.386719 161.480469 103.523438 161.945312 101.789062 C 169.09375 100.847656 176.542969 100.355469 184.167969 100.328125 Z M 185.296875 105.808594 L 185.296875 100.328125 C 192.9375 100.355469 200.386719 100.847656 207.535156 101.773438 C 208.011719 103.507812 208.417969 105.375 208.792969 107.339844 C 201.195312 106.355469 193.324219 105.835938 185.296875 105.808594 Z M 185.296875 115.351562 L 185.296875 106.949219 C 193.46875 106.964844 201.414062 107.5 209.007812 108.496094 C 209.472656 111.15625 209.847656 113.992188 210.148438 116.96875 C 202.191406 115.929688 193.84375 115.378906 185.296875 115.351562 Z M 211.074219 138.296875 C 202.800781 137.214844 194.148438 136.632812 185.296875 136.621094 L 185.296875 116.476562 C 193.902344 116.507812 202.265625 117.085938 210.265625 118.125 C 210.84375 124.300781 211.101562 131.109375 211.074219 138.296875 Z M 235.566406 131.890625 C 235.886719 135.59375 236.015625 139.425781 235.984375 143.34375 C 228.492188 141.21875 220.445312 139.554688 212.011719 138.414062 C 212.042969 131.660156 211.839844 124.761719 211.261719 118.257812 C 219.4375 119.386719 227.191406 121.019531 234.398438 123.085938 C 234.902344 125.878906 235.292969 128.8125 235.566406 131.890625 Z M 237.113281 143.675781 C 237.15625 139.554688 237.011719 135.578125 236.695312 131.804688 C 236.433594 128.882812 236.074219 126.109375 235.609375 123.433594 C 242.511719 125.488281 248.867188 127.945312 254.558594 130.765625 C 255.871094 136.476562 256.636719 142.691406 256.796875 149.359375 C 256.8125 149.953125 256.796875 150.558594 256.8125 151.152344 C 250.847656 148.261719 244.230469 145.757812 237.113281 143.675781 Z M 235.046875 168.53125 C 236.261719 160.449219 236.9375 152.699219 237.082031 145.410156 C 244.246094 147.535156 250.875 150.097656 256.8125 153.046875 C 256.738281 160.421875 255.929688 168.128906 254.457031 175.933594 C 248.609375 173.058594 242.082031 170.585938 235.046875 168.53125 Z M 232.605469 182.136719 C 233.503906 177.929688 234.238281 173.796875 234.875 169.730469 C 235.726562 169.976562 236.59375 170.210938 237.445312 170.46875 C 243.539062 172.390625 249.140625 174.621094 254.210938 177.121094 C 253.417969 181.140625 252.449219 185.1875 251.308594 189.222656 C 245.660156 186.476562 239.394531 184.089844 232.605469 182.136719 Z M 229.71875 194.355469 C 230.699219 190.625 231.582031 186.910156 232.359375 183.238281 C 239.132812 185.1875 245.386719 187.574219 250.992188 190.320312 C 249.9375 193.921875 248.753906 197.523438 247.4375 201.09375 C 242.09375 198.492188 236.144531 196.222656 229.71875 194.355469 Z M 243.597656 210.578125 C 241.316406 215.726562 238.800781 220.699219 236.058594 225.488281 C 231.726562 223.363281 226.902344 221.523438 221.6875 220.007812 C 223.234375 215.828125 224.707031 211.519531 226.078125 207.125 C 227.292969 203.207031 228.417969 199.316406 229.445312 195.46875 C 235.828125 197.304688 241.734375 199.546875 247.046875 202.148438 C 245.964844 204.984375 244.839844 207.804688 243.597656 210.578125 Z M 247.582031 232.804688 C 244.578125 230.300781 241.039062 228.015625 237.070312 225.992188 C 239.8125 221.191406 242.339844 216.203125 244.636719 211.042969 C 245.863281 208.265625 247.003906 205.476562 248.058594 202.65625 C 253.070312 205.199219 257.503906 208.0625 261.230469 211.214844 C 257.460938 218.632812 252.882812 225.878906 247.582031 232.804688 Z M 250.398438 235.363281 C 249.777344 234.742188 249.113281 234.132812 248.433594 233.539062 C 253.734375 226.628906 258.328125 219.398438 262.109375 211.980469 C 262.863281 212.660156 263.597656 213.328125 264.277344 214.019531 C 266.804688 216.550781 268.796875 219.140625 270.269531 221.800781 C 269.878906 222.480469 269.492188 223.160156 269.085938 223.824219 C 265.113281 230.257812 260.492188 236.230469 255.308594 241.695312 C 254.066406 239.511719 252.433594 237.414062 250.398438 235.363281 Z M 231.394531 254.332031 C 231.003906 253.957031 230.585938 253.582031 230.167969 253.21875 C 236.363281 247.710938 242.226562 241.480469 247.523438 234.742188 C 247.597656 234.640625 247.667969 234.523438 247.742188 234.4375 C 248.390625 235 249.011719 235.578125 249.589844 236.15625 C 251.65625 238.226562 253.273438 240.367188 254.484375 242.550781 C 248.636719 248.578125 242.035156 253.972656 234.800781 258.683594 C 233.933594 257.195312 232.792969 255.75 231.394531 254.332031 Z M 209.167969 268.632812 C 209.082031 268.546875 209.007812 268.488281 208.921875 268.417969 C 215.867188 264.613281 222.757812 259.699219 229.3125 253.972656 C 229.761719 254.347656 230.195312 254.738281 230.597656 255.144531 C 231.941406 256.503906 233.027344 257.890625 233.863281 259.308594 C 226.785156 263.832031 219.117188 267.695312 210.914062 270.847656 C 210.453125 270.078125 209.875 269.34375 209.167969 268.632812 Z M 140.136719 253.941406 C 146.707031 259.683594 153.609375 264.597656 160.558594 268.402344 C 160.472656 268.488281 160.382812 268.546875 160.3125 268.632812 C 159.605469 269.34375 159.027344 270.078125 158.550781 270.847656 C 150.347656 267.695312 142.691406 263.820312 135.617188 259.308594 C 136.714844 257.414062 138.246094 255.621094 140.136719 253.941406 Z M 121.722656 234.421875 C 121.8125 234.523438 121.882812 234.640625 121.96875 234.742188 C 127.253906 241.480469 133.117188 247.710938 139.3125 253.207031 C 138.894531 253.582031 138.476562 253.957031 138.070312 254.332031 C 136.671875 255.734375 135.53125 257.195312 134.664062 258.683594 C 127.441406 253.972656 120.84375 248.5625 114.996094 242.550781 C 116.570312 239.6875 118.851562 236.953125 121.722656 234.421875 Z M 121.046875 233.527344 C 120.367188 234.121094 119.703125 234.742188 119.082031 235.363281 C 117.03125 237.402344 115.414062 239.511719 114.171875 241.667969 C 108.972656 236.214844 104.367188 230.257812 100.410156 223.824219 C 99.988281 223.160156 99.613281 222.480469 99.210938 221.800781 C 101.128906 218.328125 103.890625 215.046875 107.371094 211.980469 C 111.167969 219.386719 115.746094 226.613281 121.046875 233.527344 Z M 124.859375 211.042969 C 127.140625 216.191406 129.667969 221.179688 132.410156 225.980469 C 128.4375 228.015625 124.902344 230.300781 121.910156 232.789062 C 116.613281 225.878906 112.019531 218.632812 108.25 211.214844 C 111.945312 208.105469 116.378906 205.242188 121.433594 202.699219 C 122.503906 205.503906 123.644531 208.28125 124.859375 211.042969 Z M 143.414062 207.125 C 144.789062 211.519531 146.261719 215.828125 147.792969 220.007812 C 142.578125 221.511719 137.753906 223.363281 133.421875 225.488281 C 130.691406 220.699219 128.164062 215.726562 125.882812 210.578125 C 124.65625 207.816406 123.53125 205.011719 122.460938 202.179688 C 127.730469 199.621094 133.636719 197.363281 140.066406 195.511719 C 141.089844 199.34375 142.1875 203.234375 143.414062 207.125 Z M 161.308594 191.074219 C 162.449219 199.820312 163.777344 208.351562 165.25 216.347656 C 159.546875 217.128906 154.101562 218.242188 149.003906 219.660156 C 146.128906 211.910156 143.488281 203.652344 141.234375 195.179688 C 147.488281 193.417969 154.21875 192.042969 161.308594 191.074219 Z M 159.835938 178.550781 C 160.226562 182.355469 160.671875 186.171875 161.148438 189.929688 C 154.058594 190.886719 147.269531 192.257812 140.929688 194.039062 C 139.964844 190.378906 139.082031 186.679688 138.289062 182.960938 C 144.988281 181.082031 152.226562 179.578125 159.835938 178.550781 Z M 158.566406 164.585938 C 158.765625 167.230469 158.96875 169.660156 159.171875 171.800781 C 159.328125 173.664062 159.519531 175.542969 159.71875 177.410156 C 152.09375 178.421875 144.816406 179.910156 138.027344 181.804688 C 137.148438 177.625 136.367188 173.449219 135.734375 169.269531 C 142.835938 167.257812 150.507812 165.683594 158.566406 164.585938 Z M 158.492188 163.457031 C 150.433594 164.527344 142.738281 166.089844 135.558594 168.113281 C 134.375 160.304688 133.652344 152.570312 133.523438 145.136719 C 140.960938 142.996094 149.003906 141.304688 157.496094 140.148438 C 157.566406 148.550781 158 156.675781 158.492188 163.457031 Z M 184.167969 161.734375 C 175.679688 161.75 167.375 162.300781 159.402344 163.328125 C 158.824219 155.332031 158.476562 147.480469 158.421875 140.019531 C 166.636719 138.917969 175.273438 138.355469 184.167969 138.328125 Z M 210.078125 163.371094 C 202.121094 162.328125 193.800781 161.765625 185.296875 161.734375 L 185.296875 138.328125 C 194.148438 138.339844 202.800781 138.917969 211.074219 140.003906 C 211.015625 147.480469 210.667969 155.34375 210.078125 163.371094 Z M 211.003906 163.484375 C 211.492188 156.691406 211.910156 148.5625 212 140.121094 C 220.433594 141.261719 228.476562 142.9375 235.972656 145.09375 C 235.828125 152.554688 235.105469 160.347656 233.921875 168.199219 C 226.757812 166.160156 219.058594 164.570312 211.003906 163.484375 Z M 209.773438 177.410156 C 209.960938 175.542969 210.148438 173.664062 210.324219 171.800781 C 210.511719 169.675781 210.714844 167.273438 210.914062 164.640625 C 218.871094 165.726562 226.542969 167.332031 233.746094 169.398438 C 233.097656 173.535156 232.332031 177.671875 231.453125 181.804688 C 224.664062 179.910156 217.386719 178.421875 209.773438 177.410156 Z M 208.332031 189.929688 C 208.808594 186.15625 209.253906 182.355469 209.660156 178.523438 C 217.226562 179.550781 224.476562 181.011719 231.21875 182.90625 C 230.410156 186.648438 229.53125 190.367188 228.5625 194.039062 C 222.207031 192.257812 215.4375 190.886719 208.332031 189.929688 Z M 204.230469 216.347656 C 205.703125 208.339844 207.046875 199.808594 208.1875 191.058594 C 215.234375 192.015625 221.976562 193.371094 228.273438 195.136719 C 226.007812 203.625 223.347656 211.910156 220.488281 219.675781 C 215.390625 218.242188 209.933594 217.128906 204.230469 216.347656 Z M 210.324219 243.230469 C 206.726562 242.230469 202.886719 241.421875 198.871094 240.855469 C 200.691406 233.972656 202.4375 226.035156 204.042969 217.460938 C 209.671875 218.226562 215.058594 219.328125 220.101562 220.730469 C 217.023438 228.972656 213.6875 236.589844 210.324219 243.230469 Z M 221.054688 247.261719 C 218.152344 245.84375 214.960938 244.617188 211.507812 243.574219 C 214.914062 236.867188 218.238281 229.246094 221.300781 221.0625 C 226.453125 222.550781 231.234375 224.375 235.507812 226.46875 C 231.207031 233.902344 226.351562 240.855469 221.054688 247.261719 Z M 222.078125 247.78125 C 227.363281 241.378906 232.214844 234.410156 236.519531 226.976562 C 240.449219 228.972656 243.929688 231.242188 246.890625 233.699219 C 246.800781 233.816406 246.714844 233.917969 246.628906 234.03125 C 241.34375 240.769531 235.480469 246.988281 229.3125 252.46875 C 227.234375 250.746094 224.808594 249.171875 222.078125 247.78125 Z M 210.988281 244.601562 C 214.351562 245.601562 217.484375 246.769531 220.300781 248.128906 C 215.148438 254.261719 209.558594 259.871094 203.609375 264.832031 C 202.25 264.179688 200.761719 263.585938 199.175781 263.09375 C 203.03125 258.554688 207.058594 252.191406 210.988281 244.601562 Z M 198.582031 241.96875 C 202.511719 242.503906 206.28125 243.285156 209.804688 244.269531 C 205.804688 252.035156 201.757812 258.382812 197.988281 262.75 C 196.011719 262.199219 193.902344 261.765625 191.707031 261.476562 C 193.976562 257.09375 196.316406 250.34375 198.582031 241.96875 Z M 185.296875 241.046875 C 189.5 241.058594 193.601562 241.335938 197.542969 241.824219 C 195.246094 250.210938 192.847656 256.964844 190.496094 261.332031 C 188.820312 261.144531 187.074219 261.042969 185.296875 261.027344 Z M 178.984375 261.332031 C 176.632812 256.964844 174.234375 250.210938 171.953125 241.824219 C 175.851562 241.320312 179.953125 241.058594 184.167969 241.03125 L 184.167969 261.027344 C 182.40625 261.042969 180.660156 261.144531 178.984375 261.332031 Z M 171.503906 262.75 C 167.734375 258.382812 163.691406 252.035156 159.691406 244.269531 C 163.199219 243.300781 166.957031 242.519531 170.914062 241.96875 C 173.164062 250.355469 175.503906 257.09375 177.785156 261.476562 C 175.578125 261.75 173.46875 262.183594 171.503906 262.75 Z M 165.886719 264.832031 C 159.9375 259.871094 154.347656 254.261719 149.175781 248.144531 C 152.007812 246.800781 155.128906 245.613281 158.507812 244.601562 C 162.433594 252.191406 166.464844 258.554688 170.304688 263.082031 C 168.71875 263.585938 167.230469 264.164062 165.886719 264.832031 Z M 147.402344 247.769531 C 144.6875 249.171875 142.246094 250.746094 140.167969 252.453125 C 134 246.972656 128.136719 240.769531 122.863281 234.03125 C 122.765625 233.917969 122.675781 233.800781 122.589844 233.683594 C 125.523438 231.257812 129.015625 229.015625 132.972656 227.003906 C 137.277344 234.421875 142.117188 241.378906 147.402344 247.769531 Z M 157.972656 243.574219 C 154.535156 244.601562 151.328125 245.832031 148.441406 247.25 C 143.140625 240.855469 138.304688 233.917969 134 226.5 C 138.246094 224.417969 143.027344 222.609375 148.195312 221.105469 C 151.257812 229.261719 154.578125 236.882812 157.972656 243.574219 Z M 170.609375 240.855469 C 166.59375 241.421875 162.765625 242.230469 159.171875 243.230469 C 155.804688 236.589844 152.484375 228.972656 149.410156 220.746094 C 154.417969 219.355469 159.792969 218.257812 165.453125 217.476562 C 167.054688 226.035156 168.804688 233.972656 170.609375 240.855469 Z M 184.167969 216.191406 L 184.167969 239.902344 C 179.867188 239.933594 175.679688 240.222656 171.648438 240.726562 C 169.816406 233.84375 168.039062 225.90625 166.421875 217.347656 C 172.097656 216.609375 178.046875 216.21875 184.167969 216.191406 Z M 184.167969 189.511719 L 184.167969 215.0625 C 178.003906 215.078125 171.980469 215.480469 166.21875 216.21875 C 164.714844 208.207031 163.375 199.664062 162.234375 190.945312 C 169.25 190.03125 176.601562 189.542969 184.167969 189.511719 Z M 184.167969 176.890625 L 184.167969 188.382812 C 176.585938 188.398438 169.195312 188.890625 162.089844 189.800781 C 161.597656 186.042969 161.148438 182.238281 160.746094 178.40625 C 168.242188 177.453125 176.082031 176.917969 184.167969 176.890625 Z M 184.167969 175.761719 C 176.097656 175.777344 168.195312 176.296875 160.628906 177.28125 C 160.195312 173 159.804688 168.707031 159.488281 164.46875 C 167.375 163.441406 175.648438 162.894531 184.167969 162.863281 Z M 185.296875 175.761719 L 185.296875 162.878906 C 193.699219 162.90625 201.992188 163.484375 209.992188 164.527344 C 209.6875 168.75 209.296875 173.015625 208.851562 177.28125 C 201.28125 176.296875 193.382812 175.777344 185.296875 175.761719 Z M 185.296875 188.382812 L 185.296875 176.890625 C 193.355469 176.917969 201.210938 177.425781 208.75 178.394531 C 208.34375 182.226562 207.898438 186.042969 207.40625 189.816406 C 200.300781 188.890625 192.890625 188.398438 185.296875 188.382812 Z M 185.296875 215.0625 L 185.296875 189.511719 C 192.835938 189.527344 200.199219 190.019531 207.261719 190.929688 C 206.121094 199.664062 204.761719 208.207031 203.277344 216.234375 C 197.5 215.480469 191.460938 215.078125 185.296875 215.0625 Z M 185.296875 216.191406 C 191.40625 216.21875 197.355469 216.59375 203.074219 217.332031 C 201.457031 225.90625 199.679688 233.84375 197.832031 240.742188 C 193.800781 240.222656 189.597656 239.933594 185.296875 239.902344 Z M 161.4375 267.605469 C 154.507812 263.832031 147.574219 258.945312 141.003906 253.191406 C 143.027344 251.558594 145.421875 250.039062 148.136719 248.664062 C 153.292969 254.796875 158.867188 260.390625 164.789062 265.394531 C 163.546875 266.058594 162.421875 266.796875 161.4375 267.605469 Z M 204.691406 265.394531 C 210.625 260.40625 216.199219 254.796875 221.34375 248.664062 C 224.027344 250.039062 226.410156 251.558594 228.449219 253.234375 C 221.875 258.960938 214.972656 263.847656 208.042969 267.621094 C 207.058594 266.8125 205.949219 266.074219 204.691406 265.394531 Z M 196.503906 290.367188 C 195.363281 290.105469 194.265625 289.511719 193.210938 288.617188 C 195.074219 288.3125 196.835938 287.90625 198.496094 287.429688 C 200.660156 288.296875 202.785156 288.832031 205.066406 289.035156 C 202.25 289.597656 199.375 290.03125 196.503906 290.367188 Z M 207.953125 280.460938 C 203.652344 284.785156 194.523438 287.574219 184.734375 287.574219 C 174.941406 287.574219 165.828125 284.785156 161.511719 280.460938 C 159.835938 278.785156 158.984375 276.992188 158.984375 275.15625 C 158.984375 268.285156 170.535156 262.707031 184.734375 262.707031 C 194.523438 262.707031 203.652344 265.511719 207.953125 269.832031 C 209.644531 271.511719 210.496094 273.304688 210.496094 275.15625 C 210.496094 276.992188 209.644531 278.785156 207.953125 280.460938 Z M 96.0625 233.0625 C 96.121094 229.59375 97 226.222656 98.601562 222.972656 C 98.878906 223.460938 99.152344 223.941406 99.457031 224.429688 C 103.511719 231.023438 108.265625 237.140625 113.609375 242.738281 C 112.324219 245.28125 111.585938 247.898438 111.398438 250.574219 C 105.867188 245.613281 100.625 239.816406 96.0625 233.0625 Z M 112.46875 251.527344 C 112.539062 248.796875 113.21875 246.148438 114.445312 243.605469 C 120.324219 249.589844 126.910156 254.984375 134.128906 259.683594 C 133.21875 261.503906 132.714844 263.371094 132.585938 265.277344 C 125.914062 261.75 119.007812 257.226562 112.46875 251.527344 Z M 138.878906 277.222656 C 137.726562 276.078125 136.785156 274.894531 136.019531 273.695312 C 143.71875 276.484375 151.429688 278.207031 158.304688 278.984375 C 158.695312 279.722656 159.1875 280.417969 159.792969 281.113281 C 153.554688 281.386719 146.765625 280.417969 140.195312 278.453125 C 139.746094 278.046875 139.285156 277.640625 138.878906 277.222656 Z M 155.488281 286.808594 C 154.390625 286.433594 153.308594 286.027344 152.269531 285.609375 C 155.894531 286.011719 159.632812 285.78125 165.238281 285.132812 C 166.480469 285.78125 167.820312 286.359375 169.28125 286.851562 C 166.203125 287.894531 163.128906 288.210938 159.375 287.863281 C 159.359375 287.863281 159.328125 287.863281 159.328125 287.863281 C 158.042969 287.546875 156.757812 287.183594 155.488281 286.808594 Z M 213.976562 286.808594 C 212.707031 287.183594 211.433594 287.53125 210.148438 287.863281 C 210.136719 287.863281 210.136719 287.863281 210.121094 287.863281 C 206.367188 288.210938 203.320312 287.894531 200.257812 286.867188 C 201.714844 286.359375 203.074219 285.78125 204.300781 285.144531 C 209.859375 285.78125 213.585938 286.011719 217.199219 285.609375 C 216.15625 286.027344 215.074219 286.433594 213.976562 286.808594 Z M 229.269531 278.453125 C 222.699219 280.417969 215.925781 281.386719 209.714844 281.113281 C 210.308594 280.417969 210.800781 279.722656 211.203125 278.984375 C 218.050781 278.207031 225.761719 276.5 233.457031 273.707031 C 232.679688 274.894531 231.738281 276.078125 230.597656 277.222656 C 230.179688 277.640625 229.71875 278.046875 229.269531 278.453125 Z M 236.882812 265.292969 C 236.765625 263.371094 236.246094 261.519531 235.335938 259.683594 C 242.570312 254.984375 249.15625 249.605469 255.035156 243.605469 C 256.289062 246.179688 256.941406 248.839844 257 251.542969 C 250.457031 257.226562 243.554688 261.765625 236.882812 265.292969 Z M 258.082031 250.589844 C 257.894531 247.914062 257.15625 245.296875 255.859375 242.75 C 261.230469 237.140625 265.980469 231.023438 270.039062 224.429688 C 270.328125 223.941406 270.601562 223.460938 270.890625 222.972656 C 272.507812 226.253906 273.359375 229.636719 273.402344 233.09375 C 268.839844 239.832031 263.613281 245.628906 258.082031 250.589844 Z M 274.457031 231.457031 C 274.183594 228.160156 273.214844 224.953125 271.585938 221.8125 C 273.347656 218.734375 274.964844 215.609375 276.378906 212.429688 C 278.15625 216 279.066406 219.644531 279.109375 223.390625 C 277.664062 226.210938 276.105469 228.898438 274.457031 231.457031 Z M 270.660156 186.300781 C 266.386719 182.671875 261.273438 179.375 255.511719 176.457031 C 257 168.675781 257.820312 160.984375 257.921875 153.59375 C 263.914062 156.644531 269.160156 160.117188 273.519531 163.917969 C 273.519531 170.789062 272.683594 177.859375 270.964844 185.085938 C 270.875 185.492188 270.761719 185.898438 270.660156 186.300781 Z M 220.433594 94.601562 C 223.507812 97.363281 226.121094 100.761719 228.304688 104.765625 C 222.035156 103.03125 215.335938 101.6875 208.34375 100.746094 C 207.320312 97.058594 206.035156 93.835938 204.445312 91.277344 C 210.035156 92.058594 215.390625 93.171875 220.433594 94.601562 Z M 149.003906 94.644531 C 154.042969 93.214844 159.429688 92.085938 165.035156 91.289062 C 163.445312 93.851562 162.175781 97.074219 161.148438 100.746094 C 154.160156 101.699219 147.460938 103.046875 141.191406 104.765625 C 143.34375 100.804688 145.941406 97.40625 149.003906 94.644531 Z M 98.515625 185.085938 C 96.8125 177.859375 95.976562 170.773438 95.960938 163.90625 C 100.277344 160.160156 105.519531 156.703125 111.558594 153.640625 C 111.671875 160.96875 112.480469 168.574219 113.953125 176.296875 C 108.179688 179.203125 103.066406 182.46875 98.777344 186.085938 C 98.691406 185.753906 98.601562 185.421875 98.515625 185.085938 Z M 85.777344 211.792969 C 85.777344 207.816406 86.746094 203.941406 88.582031 200.242188 C 89.664062 203.886719 90.992188 207.5 92.523438 211.054688 C 90.734375 214.367188 89.679688 217.78125 89.347656 221.25 C 88.046875 218.53125 86.863281 215.699219 85.808594 212.734375 C 85.792969 212.429688 85.777344 212.113281 85.777344 211.792969 Z M 91.121094 229.507812 C 90.820312 228.351562 90.617188 227.191406 90.5 226.023438 C 91.886719 228.582031 93.359375 231.039062 94.921875 233.367188 C 94.921875 233.382812 94.921875 233.394531 94.921875 233.410156 C 94.921875 235.074219 95.109375 236.722656 95.46875 238.355469 C 93.867188 235.476562 92.421875 232.527344 91.121094 229.507812 Z M 102.761719 249.5625 C 102.691406 249.488281 102.617188 249.429688 102.53125 249.402344 C 101 247.320312 99.570312 245.179688 98.214844 242.996094 C 97.027344 240.410156 96.320312 237.761719 96.121094 235.089844 C 100.683594 241.59375 105.867188 247.203125 111.324219 252.003906 C 111.339844 254.652344 111.917969 257.269531 113.03125 259.8125 C 109.246094 256.804688 105.75 253.40625 102.761719 249.5625 Z M 120.554688 268.300781 C 119.066406 266.882812 117.765625 265.421875 116.683594 263.917969 C 122.242188 267.695312 128.25 270.714844 134.332031 273.058594 C 135.167969 274.632812 136.296875 276.152344 137.726562 277.640625 C 133.074219 276.035156 128.613281 273.941406 124.582031 271.425781 C 123.226562 270.410156 121.882812 269.386719 120.554688 268.300781 Z M 248.925781 268.300781 C 247.566406 269.398438 246.183594 270.46875 244.78125 271.496094 C 240.765625 274.011719 236.304688 276.078125 231.683594 277.671875 C 233.097656 276.210938 234.238281 274.664062 235.105469 273.074219 C 241.183594 270.746094 247.191406 267.722656 252.753906 263.949219 C 251.683594 265.4375 250.398438 266.898438 248.925781 268.300781 Z M 266.933594 249.402344 C 266.863281 249.429688 266.789062 249.488281 266.730469 249.5625 C 263.726562 253.421875 260.21875 256.820312 256.433594 259.84375 C 257.546875 257.28125 258.125 254.664062 258.140625 252.019531 C 263.597656 247.21875 268.78125 241.609375 273.347656 235.132812 C 273.144531 237.804688 272.421875 240.4375 271.253906 243.027344 C 269.894531 245.195312 268.464844 247.320312 266.933594 249.402344 Z M 273.996094 238.355469 C 274.355469 236.734375 274.546875 235.074219 274.546875 233.410156 C 276.105469 231.066406 277.578125 228.640625 278.964844 226.066406 C 278.847656 227.222656 278.644531 228.363281 278.359375 229.519531 C 277.042969 232.527344 275.597656 235.492188 273.996094 238.355469 Z M 277.835938 147.234375 C 275.945312 144.773438 273.664062 142.417969 271.078125 140.164062 C 270.183594 137.371094 269.128906 134.625 267.917969 131.949219 C 269.78125 133.742188 271.441406 135.59375 272.855469 137.53125 C 274.703125 140.667969 276.351562 143.921875 277.835938 147.234375 Z M 246.585938 111.433594 C 241.472656 109.015625 235.839844 106.921875 229.804688 105.1875 C 227.839844 101.367188 225.5 98.070312 222.773438 95.265625 C 226.785156 96.511719 230.585938 97.96875 234.109375 99.605469 C 235.480469 100.371094 236.839844 101.152344 238.179688 101.992188 C 241.359375 104.59375 244.175781 107.757812 246.585938 111.433594 Z M 200.171875 88.023438 C 200.820312 88.542969 201.425781 89.136719 202.019531 89.828125 C 196.605469 89.179688 191.015625 88.832031 185.296875 88.804688 L 185.296875 86.878906 C 190.320312 86.894531 195.289062 87.285156 200.171875 88.023438 Z M 184.167969 86.867188 L 184.167969 88.804688 C 178.480469 88.832031 172.875 89.195312 167.460938 89.84375 C 168.039062 89.152344 168.660156 88.542969 169.308594 88.023438 C 174.160156 87.285156 179.128906 86.894531 184.167969 86.867188 Z M 96.695312 137.472656 C 98.097656 135.578125 99.714844 133.742188 101.550781 131.992188 C 100.320312 134.695312 99.265625 137.472656 98.371094 140.308594 C 95.742188 142.578125 93.476562 144.976562 91.585938 147.4375 C 93.117188 144.007812 94.820312 140.683594 96.695312 137.472656 Z M 82.789062 187.023438 C 82.976562 184.175781 83.640625 181.386719 84.769531 178.667969 C 85.144531 185.363281 86.285156 192.042969 88.117188 198.621094 C 86.242188 202.078125 85.128906 205.632812 84.78125 209.292969 C 83.453125 202.671875 82.761719 195.859375 82.761719 188.960938 C 82.761719 188.3125 82.773438 187.660156 82.789062 187.023438 Z M 81.027344 188.71875 C 81.027344 188.789062 81.042969 188.847656 81.070312 188.917969 C 81.070312 188.933594 81.054688 188.949219 81.054688 188.960938 C 81.054688 216.679688 91.84375 242.75 111.425781 262.359375 C 131.011719 281.964844 157.035156 292.75 184.734375 292.75 C 241.863281 292.75 288.351562 246.234375 288.410156 189.050781 C 288.453125 188.949219 288.480469 188.832031 288.480469 188.71875 C 288.480469 187.804688 288.421875 186.910156 288.335938 186.011719 C 287.601562 159.394531 276.929688 134.464844 258.039062 115.566406 C 238.457031 95.960938 212.433594 85.160156 184.734375 85.160156 C 157.046875 85.160156 131.011719 95.960938 111.425781 115.566406 C 92.421875 134.597656 81.734375 159.699219 81.128906 186.519531 C 81.054688 187.257812 81.027344 187.980469 81.027344 188.71875 " fill-opacity="1" fill-rule="nonzero"/><g clip-path="url(#6598a0540b)"><path fill="#ffffff" d="M 294.488281 209.175781 C 292.914062 209.308594 291.902344 210.363281 292.222656 211.519531 C 292.539062 212.691406 294.070312 213.527344 295.644531 213.398438 C 306.648438 212.472656 315.488281 210.8125 321.566406 208.441406 C 328.023438 205.921875 331.558594 202.570312 331.558594 198.390625 C 331.558594 189.714844 315.039062 179.652344 288.351562 170.410156 C 262.585938 161.488281 227.046875 153.046875 187.835938 147.21875 C 168.023438 144.285156 149.191406 142.289062 132.078125 141.1875 C 107.296875 139.597656 86.066406 139.917969 70.746094 142 C 54.484375 144.210938 44.5625 148.5625 43.539062 154.953125 C 43.480469 155.332031 43.449219 155.707031 43.449219 156.066406 C 43.449219 159.667969 46.136719 163.429688 51.105469 167.230469 C 55.886719 170.859375 62.847656 174.605469 71.597656 178.304688 C 73.042969 178.914062 74.789062 178.609375 75.496094 177.597656 C 76.203125 176.601562 75.613281 175.300781 74.167969 174.675781 C 65.949219 171.207031 59.464844 167.738281 55.148438 164.441406 C 51.335938 161.535156 49.269531 158.828125 49.269531 156.445312 C 49.269531 156.210938 49.300781 155.996094 49.328125 155.808594 C 50.050781 151.3125 58.414062 148.058594 72.261719 146.179688 C 87.050781 144.152344 107.757812 143.878906 132.078125 145.425781 C 149.003906 146.511719 167.632812 148.492188 187.171875 151.398438 C 225.90625 157.136719 260.941406 165.453125 286.257812 174.214844 C 310.632812 182.660156 325.726562 191.261719 325.726562 198.015625 C 325.726562 200.601562 323.167969 202.828125 318.492188 204.652344 C 312.988281 206.792969 304.800781 208.308594 294.488281 209.175781 " fill-opacity="1" fill-rule="nonzero"/></g><g clip-path="url(#afd2a6dc42)"><path fill="#ffffff" d="M 291.789062 82.789062 L 291.933594 82.789062 C 292.914062 95.730469 303.226562 106.066406 316.152344 107.035156 L 316.152344 107.195312 C 303.226562 108.164062 292.914062 118.503906 291.933594 131.445312 L 291.789062 131.445312 C 290.804688 118.503906 280.496094 108.164062 267.570312 107.195312 L 267.570312 107.035156 C 280.496094 106.066406 290.804688 95.730469 291.789062 82.789062 " fill-opacity="1" fill-rule="evenodd"/></g><path fill="#ffffff" d="M 316.542969 127.4375 L 316.613281 127.4375 C 317.019531 132.949219 321.40625 137.34375 326.894531 137.75 L 326.894531 137.820312 C 321.40625 138.226562 317.019531 142.621094 316.613281 148.117188 L 316.542969 148.117188 C 316.136719 142.621094 311.746094 138.226562 306.246094 137.820312 L 306.246094 137.75 C 311.746094 137.34375 316.136719 132.949219 316.542969 127.4375 " fill-opacity="1" fill-rule="evenodd"/><path stroke-linecap="butt" transform="matrix(0.745371, -0.0831981, 0.0831981, 0.745371, 84.84807, 152.383423)" fill="none" stroke-linejoin="miter" d="M 2.801142 54.998324 L 23.564573 54.999553 C 30.183564 54.999428 34.991478 50.190594 34.991352 43.571603 L 34.994755 11.614326 C 34.994002 10.822899 34.324247 10.203111 33.532821 10.203863 L 19.602915 10.205492 C 18.811489 10.206245 18.19288 10.818484 18.193055 11.615087 L 18.196232 38.489641 C 18.193542 39.264961 17.579531 39.882954 16.799035 39.879686 L 2.801261 39.87898 C 2.009835 39.879733 1.395824 40.497726 1.392556 41.278222 L 1.395592 53.55223 C 1.392902 54.32755 2.009716 54.999077 2.801142 54.998324 Z M 2.801142 54.998324 " stroke="#231f20" stroke-width="11.269819" stroke-opacity="1" stroke-miterlimit="4"/><path stroke-linecap="butt" transform="matrix(0.747915, -0.0558869, 0.0558869, 0.747915, 112.890811, 149.251368)" fill="none" stroke-linejoin="miter" d="M 2.79976 55.000345 L 26.370414 55.001529 C 32.982703 54.999452 37.797283 50.188589 37.795594 43.571107 L 37.79476 21.635056 C 37.798265 15.017961 32.982209 10.202993 26.36992 10.20507 L 2.80446 10.204274 C 2.010337 10.207609 1.395306 10.819731 1.393447 11.613466 L 1.394598 53.605301 C 1.393903 54.383454 2.011219 54.998874 2.79976 55.000345 Z M 19.602928 42.122895 C 18.809193 42.121036 18.191877 41.505617 18.192572 40.727463 L 18.194213 24.489732 C 18.196072 23.695997 18.811103 23.083874 19.600032 23.080152 C 20.38338 23.081235 20.995502 23.696266 20.993643 24.490001 L 20.997196 40.728121 C 20.996501 41.506274 20.381081 42.12359 19.602928 42.122895 Z M 19.602928 42.122895 " stroke="#231f20" stroke-width="11.269819" stroke-opacity="1" stroke-miterlimit="4"/><path stroke-linecap="butt" transform="matrix(0.749202, -0.0345913, 0.0345913, 0.749202, 142.924008, 147.122071)" fill="none" stroke-linejoin="miter" d="M 2.85926 55.001605 L 16.80131 54.998801 C 17.578207 54.998174 18.19567 54.385375 18.195283 53.603275 L 18.194558 11.610635 C 18.194651 10.81813 17.524382 10.203228 16.747484 10.203855 L 2.800231 10.206419 C 2.007725 10.206325 1.395466 10.819364 1.395373 11.61187 L 1.396098 53.60451 C 1.396485 54.38661 2.07716 55.001992 2.85926 55.001605 Z M 2.85926 55.001605 " stroke="#231f20" stroke-width="11.269819" stroke-opacity="1" stroke-miterlimit="4"/><path stroke-linecap="butt" transform="matrix(0.749883, -0.0132474, 0.0132474, 0.749883, 158.319397, 146.316259)" fill="none" stroke-linejoin="miter" d="M 12.823394 55.000909 L 36.38958 55.000498 C 37.124116 54.997847 37.797431 54.332553 37.795608 53.551149 L 37.850252 29.522321 C 37.848429 28.740917 37.182122 28.124885 36.390303 28.126524 L 22.445445 28.125004 C 21.721324 28.127839 21.053216 28.793225 21.049832 29.574538 L 20.996577 38.486446 C 20.9984 39.267851 20.326006 39.88107 19.601884 39.883905 C 18.810157 39.880336 18.195926 39.265224 18.194011 38.489028 L 18.193345 26.731972 C 18.191706 25.940153 18.806818 25.325922 19.603845 25.324375 L 36.387722 25.323958 C 37.179541 25.322319 37.795573 24.656012 37.79375 23.874608 L 37.7968 11.612331 C 37.795161 10.820512 37.18093 10.2054 36.389111 10.207039 L 12.822925 10.207451 C 6.217764 10.205365 1.392444 15.016719 1.395382 21.632386 L 1.393251 43.573274 C 1.396188 50.188942 6.218233 54.998824 12.823394 55.000909 Z M 12.823394 55.000909 " stroke="#231f20" stroke-width="11.269819" stroke-opacity="1" stroke-miterlimit="4"/><path stroke-linecap="butt" transform="matrix(0.749956, 0.00810721, -0.00810721, 0.749956, 188.467771, 145.898722)" fill="none" stroke-linejoin="miter" d="M 2.856397 54.998004 L 16.799924 54.998321 C 17.581241 55.000292 18.19441 54.384253 18.196437 53.608144 L 18.195588 11.610905 C 18.192238 10.819228 17.524119 10.206623 16.742802 10.204652 L 2.804483 10.204278 C 2.007598 10.207684 1.394373 10.818515 1.392571 11.615456 L 1.393364 53.607487 C 1.396544 54.38354 2.080344 55.001184 2.856397 54.998004 Z M 2.856397 54.998004 " stroke="#231f20" stroke-width="11.269819" stroke-opacity="1" stroke-miterlimit="4"/><path stroke-linecap="butt" transform="matrix(0.74946, 0.0284604, -0.0284604, 0.74946, 203.849917, 145.988119)" fill="none" stroke-linejoin="miter" d="M 11.305821 55.001437 L 25.248041 54.998409 C 26.040324 54.999595 26.65598 54.329917 26.657759 53.553248 L 26.655589 26.731926 C 26.656775 25.939644 27.326651 25.32524 28.103122 25.321814 L 33.711356 25.32254 C 34.488024 25.324319 35.100452 24.706884 35.102231 23.930215 L 35.103617 11.613999 C 35.101574 10.87396 34.48717 10.204084 33.710699 10.20751 L 2.800881 10.151243 C 2.008599 10.150057 1.396171 10.767492 1.394985 11.559774 L 1.395576 23.928036 C 1.393995 24.709909 2.01143 25.322337 2.803712 25.323523 L 8.391128 25.325039 C 9.18341 25.326225 9.858095 25.936479 9.857107 26.733966 L 9.856049 53.607531 C 9.85427 54.3842 10.523948 54.999856 11.305821 55.001437 Z M 11.305821 55.001437 " stroke="#231f20" stroke-width="11.269819" stroke-opacity="1" stroke-miterlimit="4"/><path stroke-linecap="butt" transform="matrix(0.747915, 0.0558869, -0.0558869, 0.747915, 232.132079, 147.060415)" fill="none" stroke-linejoin="miter" d="M 2.857303 55.000073 L 16.802126 54.997413 C 17.580667 55.001911 18.192789 54.38688 18.191706 53.603533 L 18.19568 45.758509 C 18.194985 44.980356 18.807107 44.365324 19.600842 44.363465 C 20.378995 44.36277 20.998684 45.037218 20.994185 45.81576 L 20.996718 53.608069 C 20.997413 54.386223 21.664771 54.999658 22.442924 54.998963 L 36.388135 55.001496 C 37.18187 54.999637 37.793992 54.384606 37.798491 53.606064 L 37.79611 21.631928 C 37.797799 15.014445 32.983219 10.203582 26.366124 10.207088 L 12.823169 10.205833 C 6.221268 10.20298 1.394824 15.018725 1.392747 21.631013 L 1.395127 53.60515 C 1.395822 54.383303 2.07915 55.000768 2.857303 55.000073 Z M 19.599859 30.930357 C 18.81093 30.926634 18.195898 30.314512 18.194039 29.520777 L 18.194229 25.05 C 18.192369 24.256265 18.809686 23.640846 19.603809 23.64418 C 20.381962 23.643485 20.996993 24.255607 20.993659 25.04973 L 20.998663 29.52012 C 20.995328 30.314243 20.383206 30.929274 19.599859 30.930357 Z M 19.599859 30.930357 " stroke="#231f20" stroke-width="11.269819" stroke-opacity="1" stroke-miterlimit="4"/><path stroke-linecap="butt" transform="matrix(0.745371, 0.0831981, -0.0831981, 0.745371, 262.360943, 149.355797)" fill="none" stroke-linejoin="miter" d="M 2.804127 55.001925 L 33.598424 55.002558 C 34.37892 54.99929 34.991737 54.385857 34.993645 53.604783 L 34.995502 41.273259 C 34.992812 40.497939 34.378801 39.879946 33.598305 39.883214 L 19.658047 39.882741 C 18.861445 39.882566 18.195094 39.265174 18.192404 38.489854 L 18.196183 11.66764 C 18.191759 10.876791 17.577147 10.206459 16.801249 10.203973 L 2.855815 10.204077 C 2.080495 10.206767 1.394056 10.817937 1.393881 11.614539 L 1.395999 53.60786 C 1.393513 54.383757 2.007524 55.001751 2.804127 55.001925 Z M 2.804127 55.001925 " stroke="#231f20" stroke-width="11.269819" stroke-opacity="1" stroke-miterlimit="4"/><g fill="#ffffff" fill-opacity="1"><g transform="translate(89.423968, 193.37883)"><g><path d="M 2.085938 -0.234375 L 17.570312 -1.960938 C 22.496094 -2.511719 25.683594 -6.5 25.132812 -11.425781 L 22.472656 -35.253906 C 22.40625 -35.839844 21.855469 -36.242188 21.273438 -36.175781 L 10.878906 -35.015625 C 10.296875 -34.953125 9.886719 -34.441406 9.953125 -33.855469 L 12.1875 -13.824219 C 12.253906 -13.242188 11.847656 -12.730469 11.261719 -12.664062 L 0.828125 -11.5 C 0.246094 -11.4375 -0.164062 -10.925781 -0.0976562 -10.339844 L 0.921875 -1.203125 C 0.988281 -0.617188 1.503906 -0.167969 2.085938 -0.234375 Z M 2.085938 -0.234375 "/></g></g></g><g fill="#ffffff" fill-opacity="1"><g transform="translate(115.964592, 190.386681)"><g><path d="M 2.09375 -0.15625 L 19.722656 -1.472656 C 24.664062 -1.84375 27.996094 -5.714844 27.628906 -10.65625 L 26.402344 -27.070312 C 26.03125 -32.011719 22.160156 -35.34375 17.21875 -34.972656 L -0.410156 -33.65625 C -0.996094 -33.613281 -1.421875 -33.117188 -1.378906 -32.53125 L 0.96875 -1.125 C 1.011719 -0.539062 1.507812 -0.113281 2.09375 -0.15625 Z M 13.9375 -10.726562 C 13.351562 -10.683594 12.855469 -11.109375 12.8125 -11.695312 L 11.902344 -23.839844 C 11.859375 -24.425781 12.285156 -24.921875 12.871094 -24.964844 C 13.460938 -25.007812 13.953125 -24.582031 13.996094 -23.996094 L 14.90625 -11.851562 C 14.949219 -11.265625 14.523438 -10.769531 13.9375 -10.726562 Z M 13.9375 -10.726562 "/></g></g></g><g fill="#ffffff" fill-opacity="1"><g transform="translate(144.826532, 188.328172)"><g><path d="M 2.140625 -0.0976562 L 12.585938 -0.582031 C 13.171875 -0.609375 13.613281 -1.089844 13.585938 -1.679688 L 12.132812 -33.140625 C 12.105469 -33.726562 11.582031 -34.164062 10.992188 -34.136719 L 0.546875 -33.65625 C -0.0390625 -33.628906 -0.480469 -33.144531 -0.453125 -32.558594 L 1 -1.097656 C 1.027344 -0.511719 1.550781 -0.0703125 2.140625 -0.0976562 Z M 2.140625 -0.0976562 "/></g></g></g><g fill="#ffffff" fill-opacity="1"><g transform="translate(159.048006, 187.55982)"><g><path d="M 9.613281 -0.167969 L 27.289062 -0.480469 C 27.835938 -0.492188 28.332031 -1.003906 28.320312 -1.59375 L 28.046875 -19.605469 C 28.035156 -20.191406 27.523438 -20.644531 26.933594 -20.636719 L 16.480469 -20.449219 C 15.933594 -20.441406 15.441406 -19.929688 15.449219 -19.339844 L 15.527344 -12.664062 C 15.535156 -12.078125 15.039062 -11.605469 14.496094 -11.597656 C 13.90625 -11.585938 13.4375 -12.039062 13.425781 -12.625 L 13.269531 -21.445312 C 13.261719 -22.03125 13.714844 -22.5 14.300781 -22.511719 L 26.898438 -22.734375 C 27.484375 -22.746094 27.9375 -23.257812 27.929688 -23.84375 L 27.765625 -33.039062 C 27.753906 -33.628906 27.285156 -34.082031 26.699219 -34.070312 L 9.019531 -33.757812 C 4.066406 -33.671875 0.519531 -29.996094 0.609375 -25.042969 L 0.898438 -8.582031 C 0.984375 -3.628906 4.660156 -0.0820312 9.613281 -0.167969 Z M 9.613281 -0.167969 "/></g></g></g><g fill="#ffffff" fill-opacity="1"><g transform="translate(188.021874, 187.146309)"><g><path d="M 2.140625 0.0234375 L 12.597656 0.136719 C 13.183594 0.140625 13.652344 -0.3125 13.65625 -0.902344 L 14 -32.394531 C 14.003906 -32.984375 13.507812 -33.449219 12.917969 -33.457031 L 2.460938 -33.570312 C 1.875 -33.574219 1.40625 -33.117188 1.402344 -32.53125 L 1.0625 -1.039062 C 1.054688 -0.449219 1.554688 0.015625 2.140625 0.0234375 Z M 2.140625 0.0234375 "/></g></g></g><g fill="#ffffff" fill-opacity="1"><g transform="translate(202.284596, 187.208405)"><g><path d="M 8.476562 0.320312 L 18.925781 0.71875 C 19.511719 0.742188 19.992188 0.253906 20.015625 -0.332031 L 20.777344 -20.433594 C 20.800781 -21.019531 21.320312 -21.460938 21.910156 -21.441406 L 26.105469 -21.28125 C 26.691406 -21.257812 27.171875 -21.703125 27.195312 -22.289062 L 27.546875 -31.523438 C 27.566406 -32.066406 27.125 -32.589844 26.535156 -32.609375 L 3.375 -33.53125 C 2.785156 -33.554688 2.308594 -33.109375 2.285156 -32.523438 L 1.933594 -23.25 C 1.910156 -22.660156 2.355469 -22.183594 2.941406 -22.160156 L 7.140625 -22 C 7.726562 -21.980469 8.210938 -21.496094 8.191406 -20.910156 L 7.425781 -0.769531 C 7.402344 -0.179688 7.890625 0.300781 8.476562 0.320312 Z M 8.476562 0.320312 "/></g></g></g><g fill="#ffffff" fill-opacity="1"><g transform="translate(229.058297, 188.195728)"><g><path d="M 2.136719 0.160156 L 12.5625 0.9375 C 13.148438 0.984375 13.644531 0.554688 13.6875 -0.03125 L 14.125 -5.890625 C 14.167969 -6.480469 14.664062 -6.90625 15.25 -6.859375 C 15.835938 -6.816406 16.261719 -6.28125 16.214844 -5.695312 L 15.78125 0.125 C 15.738281 0.710938 16.207031 1.210938 16.792969 1.253906 L 27.21875 2.035156 C 27.804688 2.078125 28.300781 1.652344 28.34375 1.066406 L 30.132812 -22.847656 C 30.5 -27.789062 27.167969 -31.65625 22.226562 -32.027344 L 12.09375 -32.785156 C 7.152344 -33.152344 3.28125 -29.820312 2.910156 -24.878906 L 1.125 -0.96875 C 1.082031 -0.382812 1.550781 0.117188 2.136719 0.160156 Z M 16.003906 -16.910156 C 15.414062 -16.957031 14.988281 -17.449219 15.035156 -18.035156 L 15.285156 -21.386719 C 15.328125 -21.972656 15.824219 -22.398438 16.410156 -22.355469 C 16.996094 -22.3125 17.421875 -21.816406 17.378906 -21.230469 L 17.128906 -17.878906 C 17.082031 -17.292969 16.589844 -16.867188 16.003906 -16.910156 Z M 16.003906 -16.910156 "/></g></g></g><g fill="#ffffff" fill-opacity="1"><g transform="translate(257.785045, 190.351204)"><g><path d="M 2.085938 0.234375 L 25.039062 2.796875 C 25.625 2.859375 26.132812 2.453125 26.199219 1.867188 L 27.222656 -7.3125 C 27.289062 -7.898438 26.882812 -8.40625 26.296875 -8.472656 L 15.90625 -9.632812 C 15.320312 -9.699219 14.871094 -10.214844 14.9375 -10.796875 L 17.167969 -30.789062 C 17.234375 -31.371094 16.832031 -31.925781 16.246094 -31.988281 L 5.855469 -33.148438 C 5.269531 -33.214844 4.71875 -32.8125 4.652344 -32.226562 L 1.160156 -0.925781 C 1.09375 -0.34375 1.503906 0.167969 2.085938 0.234375 Z M 2.085938 0.234375 "/></g></g></g><path stroke-linecap="butt" transform="matrix(1.075944, -0.0737726, 0.0737726, 1.075944, 132.322349, 190.528523)" fill="none" stroke-linejoin="miter" d="M 7.407663 13.242719 C 5.890016 13.243946 4.670476 13.080456 3.741566 12.755367 C 2.816518 12.426912 2.110223 11.979126 1.626541 11.408643 C 1.138999 10.841527 0.813776 10.183885 0.647012 9.439083 L 5.639172 9.436472 C 6.009202 9.970118 6.597303 10.235534 7.407087 10.232969 C 8.21301 10.233769 8.801149 9.969131 9.171503 9.439053 C 9.204128 9.386832 9.218437 9.336985 9.217549 9.296988 C 9.219985 9.155565 9.031047 9.051847 8.65846 8.979103 C 8.289238 8.910221 7.73013 8.857363 6.991976 8.821274 C 6.058195 8.779032 5.081154 8.679366 4.053627 8.52178 C 1.768792 8.169071 0.626577 7.248471 0.626486 5.767208 C 0.624317 5.63999 0.633484 5.506289 0.64676 5.365609 C 0.813929 4.62192 1.142117 3.965513 1.624098 3.395892 C 2.109941 2.822905 2.815756 2.377547 3.742287 2.048978 C 4.66857 1.724022 5.892342 1.561054 7.406127 1.563193 C 8.92016 1.561718 10.143314 1.725455 11.06861 2.050297 C 11.997519 2.375386 12.703815 2.823172 13.187496 3.393655 C 13.671177 3.964137 13.9964 4.621779 14.163164 5.366581 L 9.171252 5.365579 C 8.800974 4.835546 8.212873 4.57013 7.40695 4.56933 C 6.597166 4.571895 6.009027 4.836534 5.642287 5.366859 C 5.614019 5.408487 5.600453 5.447493 5.601589 5.483876 C 5.600144 5.610846 5.778984 5.70298 6.138108 5.760278 C 6.493372 5.820942 7.019958 5.87157 7.714006 5.915527 C 8.411916 5.956118 9.151453 6.024978 9.93648 6.118739 C 10.725121 6.212749 11.458465 6.371947 12.143243 6.604056 C 12.828021 6.836165 13.363694 7.177859 13.750016 7.63275 C 14.052936 7.980267 14.203881 8.426281 14.203595 8.959949 C 14.20403 9.112462 14.189515 9.27121 14.163663 9.436442 C 13.996247 10.183744 13.671672 10.840399 13.186078 11.409772 C 12.704096 11.979393 11.998034 12.428364 11.07175 12.75332 C 10.141854 13.078029 8.921696 13.241244 7.407663 13.242719 Z M 7.407663 13.242719 " stroke="#231f20" stroke-width="1.9" stroke-opacity="1" stroke-miterlimit="4"/><path stroke-linecap="butt" transform="matrix(1.077356, -0.0490267, 0.0490267, 1.077356, 148.51482, 189.423561)" fill="none" stroke-linejoin="miter" d="M 9.561314 13.000477 L 4.858686 13.000398 L 4.858302 4.563199 L 0.467504 4.562807 L 0.470444 1.789222 L 13.954666 1.790086 L 13.951727 4.563671 L 9.56093 4.563279 Z M 9.561314 13.000477 " stroke="#231f20" stroke-width="1.9" stroke-opacity="1" stroke-miterlimit="4"/><path stroke-linecap="butt" transform="matrix(1.078215, -0.0234541, 0.0234541, 1.078215, 164.298128, 188.699666)" fill="none" stroke-linejoin="miter" d="M 7.884006 13.242451 C 5.148762 13.240918 3.222857 12.673706 2.109992 11.537273 C 1.170625 10.585758 0.704221 9.209785 0.703616 7.405575 L 0.702432 1.797324 L 5.404918 1.798175 L 5.406102 7.406426 C 5.407193 8.188993 5.538728 8.804121 5.804169 9.259133 C 6.184934 9.908666 6.877046 10.23529 7.884204 10.235461 C 8.898605 10.235789 9.594032 9.910366 9.970485 9.25919 C 10.234286 8.79033 10.367333 8.170088 10.365848 7.405627 L 10.368285 1.797455 L 15.070771 1.798306 L 15.070615 7.468117 C 15.068545 9.228794 14.604308 10.584523 13.670583 11.538768 C 12.551783 12.673754 10.622951 13.240441 7.884006 13.242451 Z M 7.884006 13.242451 " stroke="#231f20" stroke-width="1.9" stroke-opacity="1" stroke-miterlimit="4"/><path stroke-linecap="butt" transform="matrix(1.078458, 0.00511752, -0.00511752, 1.078458, 181.580325, 188.311744)" fill="none" stroke-linejoin="miter" d="M 8.748984 12.998632 L 1.251316 13.001611 L 1.248812 1.787699 L 8.750119 1.788324 C 11.818011 1.788255 14.022276 2.219687 15.366519 3.078983 C 16.449171 3.769283 17.069412 4.715321 17.219946 5.906268 C 17.287583 6.420281 17.31893 6.919977 17.321199 7.39808 C 17.319829 7.872577 17.285963 8.368961 17.223225 8.887215 C 17.156865 9.405485 16.985382 9.906145 16.701548 10.392849 C 16.421353 10.883158 15.974289 11.319927 15.364012 11.710384 C 14.750114 12.100859 13.911273 12.412715 12.847509 12.649575 C 11.783728 12.882814 10.415149 13.001592 8.748984 12.998632 Z M 8.304802 10.226235 C 10.695365 10.225758 12.047152 9.621702 12.360164 8.414068 C 12.441871 8.076827 12.48372 7.736154 12.485743 7.399292 C 12.48411 7.055204 12.442653 6.714926 12.354127 6.378494 C 12.269223 6.042044 12.08668 5.738657 11.810102 5.464692 C 11.529903 5.190744 11.112326 4.971779 10.55375 4.807815 C 9.998795 4.643833 9.248648 4.564085 8.303275 4.561327 L 5.952554 4.561615 L 5.954081 10.226524 Z M 8.304802 10.226235 " stroke="#231f20" stroke-width="1.9" stroke-opacity="1" stroke-miterlimit="4"/><path stroke-linecap="butt" transform="matrix(1.078147, 0.0264258, -0.0264258, 1.078147, 201.137643, 188.463825)" fill="none" stroke-linejoin="miter" d="M 1.249492 1.789123 L 5.952313 1.789795 L 5.951716 12.999729 L 1.248896 12.999057 Z M 1.249492 1.789123 " stroke="#231f20" stroke-width="1.9" stroke-opacity="1" stroke-miterlimit="4"/><path stroke-linecap="butt" transform="matrix(1.077451, 0.0468838, -0.0468838, 1.077451, 209.102012, 188.610998)" fill="none" stroke-linejoin="miter" d="M 8.475714 13.243269 C 5.705747 13.240535 3.665303 12.673115 2.357529 11.529995 C 1.204258 10.521545 0.625861 9.143662 0.626114 7.399807 C 0.626525 5.659571 1.204667 4.282119 2.360856 3.274689 C 3.667133 2.133836 5.705177 1.562968 8.474986 1.562084 C 11.248414 1.561042 13.285397 2.132238 14.593014 3.271739 C 15.75006 4.28365 16.3283 5.657914 16.327889 7.398151 C 16.327636 9.142006 15.749494 10.519458 14.593463 11.530507 C 13.287185 12.671359 11.249142 13.242227 8.475714 13.243269 Z M 8.475293 10.234159 C 9.613739 10.235378 10.444277 9.909202 10.97792 9.258777 C 11.404582 8.732648 11.6168 8.110711 11.618505 7.400048 C 11.616435 6.685923 11.404646 6.067935 10.975901 5.546399 C 10.447089 4.891449 9.613381 4.561556 8.475092 4.563956 C 7.340265 4.56258 6.506108 4.888914 5.969161 5.546733 C 5.542341 6.069244 5.329809 6.683943 5.328261 7.398225 C 5.326713 8.112507 5.542121 8.730338 5.967562 9.259269 C 6.507072 9.910127 7.340465 10.232784 8.475293 10.234159 Z M 8.475293 10.234159 " stroke="#231f20" stroke-width="1.9" stroke-opacity="1" stroke-miterlimit="4"/><path stroke-linecap="butt" transform="matrix(1.075944, 0.0737726, -0.0737726, 1.075944, 227.626221, 189.434606)" fill="none" stroke-linejoin="miter" d="M 7.405581 13.243747 C 5.891548 13.242272 4.667776 13.079304 3.741493 12.754349 C 2.81521 12.429393 2.109147 11.980421 1.623552 11.411048 C 1.141571 10.841427 0.816749 10.181159 0.64958 9.43747 L 5.641493 9.436467 C 6.012095 9.970159 6.600233 10.234797 7.406156 10.233997 C 8.21208 10.233196 8.803794 9.967532 9.170458 9.437748 C 9.203124 9.384681 9.218219 9.340079 9.218859 9.296469 C 9.220037 9.154797 9.031431 9.051552 8.659774 8.979011 C 8.288364 8.910083 7.732911 8.857404 6.993416 8.820975 C 6.061163 8.77961 5.081336 8.679788 4.054183 8.525122 C 1.76801 8.16997 0.626652 7.249831 0.626496 5.764954 C 0.625299 5.641598 0.6342 5.506658 0.650079 5.367609 C 0.816844 4.622808 1.142066 3.965166 1.625748 3.394683 C 2.109429 2.8242 2.815724 2.376414 3.74102 2.051573 C 4.66993 1.726483 5.88947 1.562993 7.407117 1.564221 C 8.920902 1.562082 10.144673 1.72505 11.070957 2.050006 C 11.99724 2.374962 12.703303 2.823933 13.188897 3.393307 C 13.671126 3.966541 13.995701 4.623196 14.162869 5.366885 L 9.170957 5.367887 C 8.800603 4.837809 8.212217 4.569557 7.406293 4.570358 C 6.60037 4.571158 6.01227 4.836575 5.641992 5.366607 C 5.615809 5.408338 5.600467 5.449326 5.602944 5.485461 C 5.600528 5.609065 5.781163 5.701965 6.137375 5.761043 C 6.493588 5.820122 7.019884 5.871169 7.716265 5.914184 C 8.409033 5.957448 9.150511 6.022785 9.937581 6.117671 C 10.724651 6.212557 11.458117 6.372837 12.1457 6.605244 C 12.82967 6.837898 13.364947 7.178772 13.748166 7.631727 C 14.051681 7.98123 14.201898 8.424747 14.202432 8.962029 C 14.20175 9.110928 14.19097 9.27141 14.16237 9.436745 C 13.995606 10.181547 13.670383 10.839189 13.186702 11.409672 C 12.703021 11.980154 11.996726 12.42794 11.07143 12.752782 C 10.14252 13.077871 8.92298 13.241361 7.405581 13.243747 Z M 7.405581 13.243747 " stroke="#231f20" stroke-width="1.9" stroke-opacity="1" stroke-miterlimit="4"/><g fill="#ffffff" fill-opacity="1"><g transform="translate(133.281393, 204.515799)"><g><path d="M 7.984375 -0.28125 C 6.347656 -0.164062 5.019531 -0.25 4 -0.53125 C 2.988281 -0.820312 2.195312 -1.253906 1.625 -1.828125 C 1.0625 -2.410156 0.664062 -3.09375 0.4375 -3.875 L 5.796875 -4.25 C 6.234375 -3.707031 6.890625 -3.46875 7.765625 -3.53125 C 8.640625 -3.59375 9.253906 -3.914062 9.609375 -4.5 C 9.640625 -4.550781 9.648438 -4.601562 9.640625 -4.65625 C 9.640625 -4.800781 9.4375 -4.898438 9.03125 -4.953125 C 8.625 -5.003906 8.015625 -5.019531 7.203125 -5 C 6.203125 -4.976562 5.144531 -5.015625 4.03125 -5.109375 C 1.539062 -5.328125 0.242188 -6.234375 0.140625 -7.828125 C 0.128906 -7.960938 0.128906 -8.109375 0.140625 -8.265625 C 0.265625 -9.078125 0.566406 -9.804688 1.046875 -10.453125 C 1.523438 -11.097656 2.25 -11.628906 3.21875 -12.046875 C 4.1875 -12.460938 5.488281 -12.726562 7.125 -12.84375 C 8.75 -12.957031 10.070312 -12.875 11.09375 -12.59375 C 12.125 -12.3125 12.921875 -11.882812 13.484375 -11.3125 C 14.046875 -10.738281 14.441406 -10.054688 14.671875 -9.265625 L 9.3125 -8.890625 C 8.875 -9.441406 8.21875 -9.6875 7.34375 -9.625 C 6.46875 -9.5625 5.851562 -9.234375 5.5 -8.640625 C 5.476562 -8.578125 5.472656 -8.53125 5.484375 -8.5 C 5.484375 -8.363281 5.675781 -8.273438 6.0625 -8.234375 C 6.445312 -8.191406 7.015625 -8.175781 7.765625 -8.1875 C 8.523438 -8.195312 9.328125 -8.175781 10.171875 -8.125 C 11.023438 -8.082031 11.828125 -7.960938 12.578125 -7.765625 C 13.335938 -7.566406 13.945312 -7.238281 14.40625 -6.78125 C 14.75 -6.425781 14.941406 -5.960938 14.984375 -5.390625 C 14.992188 -5.222656 14.988281 -5.050781 14.96875 -4.875 C 14.84375 -4.070312 14.539062 -3.34375 14.0625 -2.6875 C 13.59375 -2.039062 12.867188 -1.503906 11.890625 -1.078125 C 10.910156 -0.660156 9.609375 -0.394531 7.984375 -0.28125 Z M 7.984375 -0.28125 "/></g></g></g><g fill="#ffffff" fill-opacity="1"><g transform="translate(149.152167, 203.429183)"><g><path d="M 10.296875 -0.46875 L 5.234375 -0.234375 L 4.828125 -9.3125 L 0.09375 -9.09375 L -0.046875 -12.09375 L 14.484375 -12.765625 L 14.625 -9.765625 L 9.890625 -9.546875 Z M 10.296875 -0.46875 "/></g></g></g><g fill="#ffffff" fill-opacity="1"><g transform="translate(164.603031, 202.716467)"><g><path d="M 8.5 0.078125 C 5.550781 0.140625 3.46875 -0.425781 2.25 -1.625 C 1.21875 -2.625 0.679688 -4.097656 0.640625 -6.046875 L 0.5 -12.09375 L 5.5625 -12.203125 L 5.703125 -6.15625 C 5.710938 -5.3125 5.867188 -4.648438 6.171875 -4.171875 C 6.597656 -3.484375 7.351562 -3.148438 8.4375 -3.171875 C 9.53125 -3.191406 10.269531 -3.554688 10.65625 -4.265625 C 10.925781 -4.785156 11.054688 -5.457031 11.046875 -6.28125 L 10.90625 -12.328125 L 15.984375 -12.4375 L 16.125 -6.328125 C 16.164062 -4.421875 15.691406 -2.945312 14.703125 -1.90625 C 13.515625 -0.644531 11.445312 0.015625 8.5 0.078125 Z M 8.5 0.078125 "/></g></g></g><g fill="#ffffff" fill-opacity="1"><g transform="translate(181.513798, 202.331702)"><g><path d="M 9.4375 0.046875 L 1.34375 0 L 1.40625 -12.09375 L 9.5 -12.046875 C 12.800781 -12.035156 15.171875 -11.5625 16.609375 -10.625 C 17.773438 -9.863281 18.4375 -8.835938 18.59375 -7.546875 C 18.664062 -6.992188 18.703125 -6.460938 18.703125 -5.953125 C 18.703125 -5.429688 18.664062 -4.890625 18.59375 -4.328125 C 18.519531 -3.773438 18.328125 -3.238281 18.015625 -2.71875 C 17.710938 -2.195312 17.226562 -1.726562 16.5625 -1.3125 C 15.90625 -0.894531 15 -0.5625 13.84375 -0.3125 C 12.695312 -0.0625 11.226562 0.0546875 9.4375 0.046875 Z M 8.96875 -2.9375 C 11.539062 -2.925781 13 -3.570312 13.34375 -4.875 C 13.4375 -5.238281 13.484375 -5.609375 13.484375 -5.984375 C 13.484375 -6.347656 13.4375 -6.710938 13.34375 -7.078125 C 13.257812 -7.441406 13.066406 -7.769531 12.765625 -8.0625 C 12.472656 -8.351562 12.023438 -8.585938 11.421875 -8.765625 C 10.828125 -8.953125 10.019531 -9.046875 9 -9.046875 L 6.46875 -9.0625 L 6.4375 -2.953125 Z M 8.96875 -2.9375 "/></g></g></g><g fill="#ffffff" fill-opacity="1"><g transform="translate(200.794108, 202.479732)"><g><path d="M 6.421875 0.15625 L 1.34375 0.03125 L 1.640625 -12.0625 L 6.71875 -11.9375 Z M 6.421875 0.15625 "/></g></g></g><g fill="#ffffff" fill-opacity="1"><g transform="translate(208.492522, 202.617859)"><g><path d="M 9.109375 0.65625 C 6.128906 0.53125 3.960938 -0.175781 2.609375 -1.46875 C 1.410156 -2.613281 0.851562 -4.128906 0.9375 -6.015625 C 1.019531 -7.878906 1.707031 -9.328125 3 -10.359375 C 4.457031 -11.523438 6.675781 -12.046875 9.65625 -11.921875 C 12.644531 -11.785156 14.816406 -11.070312 16.171875 -9.78125 C 17.378906 -8.644531 17.941406 -7.144531 17.859375 -5.28125 C 17.773438 -3.394531 17.082031 -1.929688 15.78125 -0.890625 C 14.320312 0.273438 12.097656 0.789062 9.109375 0.65625 Z M 9.25 -2.59375 C 10.46875 -2.53125 11.378906 -2.835938 11.984375 -3.515625 C 12.484375 -4.066406 12.75 -4.726562 12.78125 -5.5 C 12.8125 -6.257812 12.601562 -6.929688 12.15625 -7.515625 C 11.613281 -8.234375 10.734375 -8.625 9.515625 -8.6875 C 8.296875 -8.738281 7.382812 -8.425781 6.78125 -7.75 C 6.300781 -7.207031 6.046875 -6.554688 6.015625 -5.796875 C 5.984375 -5.023438 6.179688 -4.34375 6.609375 -3.75 C 7.148438 -3.03125 8.03125 -2.644531 9.25 -2.59375 Z M 9.25 -2.59375 "/></g></g></g><g fill="#ffffff" fill-opacity="1"><g transform="translate(226.667177, 203.421881)"><g><path d="M 7.953125 0.8125 C 6.316406 0.695312 5.007812 0.425781 4.03125 0 C 3.0625 -0.414062 2.335938 -0.945312 1.859375 -1.59375 C 1.390625 -2.25 1.09375 -2.976562 0.96875 -3.78125 L 6.328125 -3.40625 C 6.679688 -2.820312 7.296875 -2.5 8.171875 -2.4375 C 9.046875 -2.375 9.703125 -2.613281 10.140625 -3.15625 C 10.171875 -3.207031 10.191406 -3.257812 10.203125 -3.3125 C 10.203125 -3.457031 10.003906 -3.582031 9.609375 -3.6875 C 9.210938 -3.789062 8.617188 -3.882812 7.828125 -3.96875 C 6.828125 -4.09375 5.78125 -4.273438 4.6875 -4.515625 C 2.257812 -5.066406 1.097656 -6.140625 1.203125 -7.734375 C 1.210938 -7.867188 1.234375 -8.015625 1.265625 -8.171875 C 1.492188 -8.960938 1.890625 -9.644531 2.453125 -10.21875 C 3.015625 -10.789062 3.804688 -11.21875 4.828125 -11.5 C 5.847656 -11.78125 7.175781 -11.863281 8.8125 -11.75 C 10.4375 -11.632812 11.734375 -11.367188 12.703125 -10.953125 C 13.679688 -10.535156 14.410156 -10.003906 14.890625 -9.359375 C 15.367188 -8.710938 15.671875 -7.984375 15.796875 -7.171875 L 10.4375 -7.546875 C 10.082031 -8.140625 9.46875 -8.46875 8.59375 -8.53125 C 7.71875 -8.59375 7.0625 -8.347656 6.625 -7.796875 C 6.601562 -7.753906 6.585938 -7.71875 6.578125 -7.6875 C 6.578125 -7.550781 6.765625 -7.4375 7.140625 -7.34375 C 7.515625 -7.25 8.070312 -7.15625 8.8125 -7.0625 C 9.5625 -6.96875 10.351562 -6.835938 11.1875 -6.671875 C 12.03125 -6.515625 12.8125 -6.285156 13.53125 -5.984375 C 14.257812 -5.679688 14.8125 -5.269531 15.1875 -4.75 C 15.488281 -4.351562 15.617188 -3.867188 15.578125 -3.296875 C 15.566406 -3.128906 15.539062 -2.957031 15.5 -2.78125 C 15.269531 -2 14.867188 -1.316406 14.296875 -0.734375 C 13.734375 -0.160156 12.941406 0.265625 11.921875 0.546875 C 10.898438 0.835938 9.578125 0.925781 7.953125 0.8125 Z M 7.953125 0.8125 "/></g></g></g></svg>